<svg xmlns="http://www.w3.org/2000/svg" version="1.1" xmlns:xlink="http://www.w3.org/1999/xlink" xmlns:svgjs="http://svgjs.dev/svgjs" width="100%" height="100%" viewBox="0 0 1000 600"><rect width="1000" height="600" x="0" y="0" fill="#6495ed"/><g><rect width="333.3333333333333" height="333.3333333333333" y="243.21523008336374" fill="#fc2e20" transform="matrix(0.5656287201665143,0,0,0.5656287201665144,0,68.15901587776511)" x="220.9930267333984"/><path d="M353.4687335375365 484.8819043308847L336.1018993666822 484.8819043308847L336.1018993666822 334.8819043308847L391.00642197974753 334.8819043308847Q407.5290350450741 334.8819043308847 418.14210037170733 340.1884369942013Q428.7853164521093 345.5251204112867 434.0013968541194 356.25878875299526Q439.2174772561294 366.9924570947038 439.2174772561294 383.51507016003046L439.2174772561294 383.51507016003046Q439.2174772561294 399.7964771952063 434.0013968541194 411.1934621198294Q428.7853164521093 422.59044704445256 418.14210037170733 428.5602962906837Q407.5290350450741 434.53014553691486 391.00642197974753 434.53014553691486L391.00642197974753 434.53014553691486L353.4687335375365 434.53014553691486L353.4687335375365 484.8819043308847ZM353.4687335375365 350.0778842303822L353.4687335375365 419.33416563741736L391.00642197974753 419.33416563741736Q407.0767737385415 419.33416563741736 414.25265313552643 409.98743196907566Q421.3983817787425 400.64069830073396 421.3983817787425 383.51507016003046L421.3983817787425 383.51507016003046Q421.3983817787425 366.14823598917616 414.25265313552643 358.09798473289476Q407.0767737385415 350.0778842303822 391.00642197974753 350.0778842303822L391.00642197974753 350.0778842303822L353.4687335375365 350.0778842303822Z " fill="#f7f7f7" transform="matrix(0.5656287201665143,0,0,0.5656287201665144,0,68.15901587776511)"/><path d="M677.2764443384677 447.1813696658148L637.6596883656504 447.1813696658148L637.6596883656504 336.3302105180268L677.2764443384677 336.3302105180268Q689.4645014347171 336.3302105180268 697.4858918454113 340.25177916325504Q705.5072822561054 344.19562944851305 710.1641450223141 351.325754258019Q714.8210077885227 358.45587906752496 716.7372288310775 368.3266456006848Q718.6757315136618 378.19741213384464 718.6757315136618 390.073526269678L718.6757315136618 390.073526269678Q718.6757315136618 402.1056118857193 716.8263553911962 412.4442928595029Q714.9769792687306 422.80525547331627 710.320116502522 430.64839276377285Q705.6855353763432 438.5138116942591 697.6641449656489 442.8587315000518Q689.6427545549546 447.1813696658148 677.2764443384677 447.1813696658148L677.2764443384677 447.1813696658148ZM650.493913022761 347.7161285732066L650.493913022761 435.795451610635L677.2764443384677 435.795451610635Q685.9440023100235 435.795451610635 691.4030041173015 432.0966993657038Q696.8620059245794 428.4202287608023 699.8923089686195 422.0031164322469Q702.9448936526893 415.5860041036915 704.1481022142934 407.38636057275966Q705.3513107758976 399.2089986818575 705.3513107758976 390.073526269678L705.3513107758976 390.073526269678Q705.3513107758976 381.0940253377064 704.1481022142934 373.3845778874281Q702.9448936526893 365.6751304371498 699.8923089686195 359.90418566945584Q696.8620059245794 354.133240901762 691.4030041173015 350.9246847374843Q685.9440023100235 347.7161285732066 677.2764443384677 347.7161285732066L677.2764443384677 347.7161285732066L650.493913022761 347.7161285732066ZM808.8272470738528 447.1813696658148L740.9796531833978 447.1813696658148L740.9796531833978 336.3302105180268L808.8272470738528 336.3302105180268L808.8272470738528 347.7161285732066L753.8138778405083 347.7161285732066L753.8138778405083 385.26069202326147L799.2015785810198 385.26069202326147L799.2015785810198 396.4906385982334L753.8138778405083 396.4906385982334L753.8138778405083 435.795451610635L808.8272470738528 435.795451610635L808.8272470738528 447.1813696658148ZM877.1650370449617 447.1813696658148L848.934199127324 447.1813696658148L820.0571936488246 336.3302105180268L833.3816143865889 336.3302105180268L858.559867620157 435.795451610635L867.3833970719205 435.795451610635L892.5839319455182 336.3302105180268L905.8860710432529 336.3302105180268L877.1650370449617 447.1813696658148ZM982.8914189859171 448.9416192281616L982.8914189859171 448.9416192281616Q974.558085614807 448.9416192281616 969.6561248082718 446.3792306247454Q964.7764456417661 443.8168420213292 962.6819714789737 437.4665746128629Q960.5874973161814 431.1385888444264 960.5874973161814 419.5966993090386L960.5874973161814 419.5966993090386L960.5874973161814 377.7072160531911L949.2015792610015 377.7072160531911L949.2015792610015 366.96746555887273L960.5874973161814 366.96746555887273L960.5874973161814 342.41309824613654L972.9538075326683 342.41309824613654L972.9538075326683 366.96746555887273L998.1320607662361 366.96746555887273L998.1320607662361 377.7072160531911L972.9538075326683 377.7072160531911L972.9538075326683 415.89794706410737Q972.9538075326683 424.40953355545514 973.6668200136188 429.13324124175284Q974.4021141345992 433.85694892805054 976.8085312578074 435.795451610635Q979.2149483810157 437.7116726531897 984.339725587848 437.7116726531897L984.339725587848 437.7116726531897Q985.944003669987 437.7116726531897 988.5063922734031 437.55570117298174Q991.0687808768192 437.3997296927738 993.7202960403544 437.15463165244705Q996.3718112038893 436.9095336121203 998.4662853666817 436.7535621319123L998.4662853666817 436.7535621319123L999.2684244077512 447.1813696658148Q995.7256436430279 447.67156574646833 990.9128093966114 448.2954516673001Q986.0999751501948 448.9416192281616 982.8914189859171 448.9416192281616ZM1025.2488166823887 447.1813696658148L1012.9047881059313 447.1813696658148L1012.9047881059313 366.96746555887273L1025.2488166823887 366.96746555887273L1025.2488166823887 377.7072160531911Q1028.3014013664583 375.6350235304284 1032.958264132667 373.1394798471013Q1037.5928452588455 370.66621780380393 1043.2078185463315 368.4157721608036Q1048.8227918338175 366.1653265178033 1054.4377651213035 365.207215996526L1054.4377651213035 365.207215996526L1054.4377651213035 377.88546917342876Q1049.001044954055 378.999551174914 1043.3860716665695 380.84892729737965Q1037.7710983790835 382.6983034198453 1033.0251090527559 384.7704959426079Q1028.3014013664583 386.8649701054003 1025.2488166823887 388.46924818753916L1025.2488166823887 388.46924818753916L1025.2488166823887 447.1813696658148ZM1086.0554123234565 448.78564774795365L1086.0554123234565 448.78564774795365Q1074.9814372286928 448.78564774795365 1069.210492460999 442.5245068996062Q1063.4395476933046 436.2633660512588 1063.4395476933046 424.2312804352175L1063.4395476933046 424.2312804352175Q1063.4395476933046 416.38814314476093 1066.1579077769288 411.39705577810673Q1068.876267860553 406.4282500514823 1074.4243962279497 403.77673488794727Q1079.9502429553172 401.14750136444195 1088.1276048462191 400.50133380358045L1088.1276048462191 400.50133380358045L1112.8379436391633 398.0949166803722L1112.8379436391633 391.1876082711633Q1112.8379436391633 383.01024638026115 1109.228317954351 379.6457187357755Q1105.6186922695383 376.2811910912899 1098.5554123801217 376.2811910912899L1098.5554123801217 376.2811910912899Q1094.5447171747746 376.2811910912899 1089.0188704474076 376.59313405170576Q1083.4930237200401 376.90507701212164 1078.0340219127625 377.3952730927752Q1072.5750201054843 377.88546917342876 1068.4083534199294 378.3533836140526L1068.4083534199294 378.3533836140526L1067.7621858590678 368.8836866014275Q1071.616909584207 368.08154756035805 1077.075911391485 367.2794085192886Q1082.5126315587331 366.47726947821917 1088.461829446665 365.92022847747654Q1094.3887456945668 365.36318747673386 1099.3575514211911 365.36318747673386L1099.3575514211911 365.36318747673386Q1108.5153054734005 365.36318747673386 1114.2862502410944 368.17067412047686Q1120.0571950087883 370.9781607642198 1122.7087101723232 376.68226061182463Q1125.360225335858 382.36407881939965 1125.360225335858 391.1876082711633L1125.360225335858 391.1876082711633L1125.360225335858 431.7847564052879Q1125.6721682962739 435.3052555299814 1128.1677119796013 436.9095336121203Q1130.6409740228987 438.5138116942591 1134.4956977480379 439.0040077749127L1134.4956977480379 439.0040077749127L1134.0277833074138 448.78564774795365Q1130.4850025426904 448.78564774795365 1127.6106709788587 448.38457822741896Q1124.7140577749965 447.9835087068842 1122.1516691715806 447.1813696658148L1122.1516691715806 447.1813696658148Q1120.0571950087883 446.3792306247454 1118.2078188863225 445.2651486232601Q1116.3807244038867 444.12878498174507 1114.5981932015102 442.5245068996062L1114.5981932015102 442.5245068996062Q1111.5678901574702 443.8168420213292 1106.8219008311426 445.2651486232601Q1102.098193144845 446.69117358516127 1096.7283178976859 447.73841066655746Q1091.336161010497 448.78564774795365 1086.0554123234565 448.78564774795365ZM1088.1276048462191 438.3578402140512L1088.1276048462191 438.3578402140512Q1092.472524652012 438.3578402140512 1097.1293874182206 437.55570117298174Q1101.7639685443992 436.7535621319123 1105.9529168699842 435.63948013042705Q1110.119583555539 434.50311648891204 1112.8379436391633 433.54500596763467L1112.8379436391633 433.54500596763467L1112.8379436391633 407.38636057275966L1089.5759114481502 409.63680621576Q1082.3566600785252 410.2829737766215 1079.2372304743662 413.803472901315Q1076.095519230178 417.3462536660383 1076.095519230178 423.91933747480164L1076.095519230178 423.91933747480164Q1076.095519230178 430.64839276377285 1079.1481039142477 434.50311648891204Q1082.2006885983174 438.3578402140512 1088.1276048462191 438.3578402140512ZM1161.4564821839822 447.1813696658148L1149.0901719674953 447.1813696658148L1149.0901719674953 366.96746555887273L1161.4564821839822 366.96746555887273L1161.4564821839822 447.1813696658148ZM1161.4564821839822 349.32040665534544L1149.0901719674953 349.32040665534544L1149.0901719674953 334.8819039160959L1161.4564821839822 334.8819039160959L1161.4564821839822 349.32040665534544ZM1196.9065714712447 447.1813696658148L1184.5625428947874 447.1813696658148L1184.5625428947874 366.96746555887273L1196.9065714712447 366.96746555887273L1196.9065714712447 372.5824388463587Q1199.6249315548685 370.9781607642198 1203.7247533203345 369.373882682081Q1207.8245750858005 367.76960459994217 1212.4591562119795 366.56639603833804Q1217.116018978188 365.36318747673386 1221.4609387839805 365.36318747673386L1221.4609387839805 365.36318747673386Q1232.512632238715 365.36318747673386 1238.3727035665274 369.2847561219622Q1244.2327748943403 373.2286064072201 1246.483220537341 381.89616437877584Q1248.733666180341 390.5414407103018 1248.733666180341 404.6680004891355L1248.733666180341 404.6680004891355L1248.733666180341 447.1813696658148L1236.2113844836463 447.1813696658148L1236.2113844836463 405.158196569789Q1236.2113844836463 394.73038903588656 1235.008175922042 388.46924818753916Q1233.8049673604378 382.2081073391917 1230.1953416756255 379.40062069544877Q1226.5857159908132 376.59313405170576 1219.2104931409804 376.59313405170576L1219.2104931409804 376.59313405170576Q1215.1997979356333 376.59313405170576 1210.9440046899595 377.484399652894Q1206.6882114442856 378.3533836140526 1203.011740839384 379.71256365586464Q1199.3129885944527 381.0940253377064 1196.9065714712447 382.36407881939965L1196.9065714712447 382.36407881939965L1196.9065714712447 447.1813696658148ZM1283.2256449463262 447.1813696658148L1270.8593347298392 447.1813696658148L1270.8593347298392 366.96746555887273L1283.2256449463262 366.96746555887273L1283.2256449463262 372.5824388463587Q1285.9440050299504 370.9781607642198 1290.0438267954164 369.373882682081Q1294.1213669208528 367.76960459994217 1298.778229687061 366.56639603833804Q1303.4350924532696 365.36318747673386 1307.7577306190328 365.36318747673386L1307.7577306190328 365.36318747673386Q1318.8317057137965 365.36318747673386 1324.6917770416094 369.2847561219622Q1330.5518483694218 373.2286064072201 1332.7800123723928 381.89616437877584Q1335.030458015393 390.5414407103018 1335.030458015393 404.6680004891355L1335.030458015393 404.6680004891355L1335.030458015393 447.1813696658148L1322.5304579587278 447.1813696658148L1322.5304579587278 405.158196569789Q1322.5304579587278 394.73038903588656 1321.3272493971235 388.46924818753916Q1320.1240408355193 382.2081073391917 1316.514415150707 379.40062069544877Q1312.9047894658947 376.59313405170576 1305.5072849760322 376.59313405170576L1305.5072849760322 376.59313405170576Q1301.4965897706852 376.59313405170576 1297.263078165041 377.484399652894Q1293.007284919367 378.3533836140526 1289.3085326744358 379.71256365586464Q1285.6320620695346 381.0940253377064 1283.2256449463262 382.36407881939965L1283.2256449463262 382.36407881939965L1283.2256449463262 447.1813696658148ZM1369.522436781378 447.1813696658148L1357.1784082049207 447.1813696658148L1357.1784082049207 366.96746555887273L1369.522436781378 366.96746555887273L1369.522436781378 447.1813696658148ZM1369.522436781378 349.32040665534544L1357.1784082049207 349.32040665534544L1357.1784082049207 334.8819039160959L1369.522436781378 334.8819039160959L1369.522436781378 349.32040665534544ZM1404.9725260686405 447.1813696658148L1392.6284974921832 447.1813696658148L1392.6284974921832 366.96746555887273L1404.9725260686405 366.96746555887273L1404.9725260686405 372.5824388463587Q1407.7131677922944 370.9781607642198 1411.7907079177307 369.373882682081Q1415.8905296831963 367.76960459994217 1420.547392449405 366.56639603833804Q1425.2042552156136 365.36318747673386 1429.5268933813768 365.36318747673386L1429.5268933813768 365.36318747673386Q1440.6008684761405 365.36318747673386 1446.4609398039534 369.2847561219622Q1452.2987294917366 373.2286064072201 1454.5491751347367 381.89616437877584Q1456.799620777737 390.5414407103018 1456.799620777737 404.6680004891355L1456.799620777737 404.6680004891355L1456.799620777737 447.1813696658148L1444.277339081042 447.1813696658148L1444.277339081042 405.158196569789Q1444.277339081042 394.73038903588656 1443.0741305194379 388.46924818753916Q1441.870921957834 382.2081073391917 1438.2612962730213 379.40062069544877Q1434.651670588209 376.59313405170576 1427.2764477383762 376.59313405170576L1427.2764477383762 376.59313405170576Q1423.2657525330292 376.59313405170576 1419.0099592873553 377.484399652894Q1414.776447681711 378.3533836140526 1411.0776954367798 379.71256365586464Q1407.3789431918485 381.0940253377064 1404.9725260686405 382.36407881939965L1404.9725260686405 382.36407881939965L1404.9725260686405 447.1813696658148ZM1509.8967689685269 484.88190459607756L1509.8967689685269 484.88190459607756Q1497.3967689118613 484.88190459607756 1489.776448021702 482.72058551319606Q1482.1561271315427 480.5592664303146 1478.7024729269383 475.25623610324453Q1475.2488187223335 469.9532057761745 1475.2488187223335 460.817733363995L1475.2488187223335 460.817733363995Q1475.2488187223335 456.16087059778636 1476.6971253242646 452.8854695134196Q1478.1454319261957 449.5877867890231 1480.9529185699384 446.7803001452801Q1483.7604052136812 443.97281350153713 1487.9270718992366 440.9202288174674L1487.9270718992366 440.9202288174674Q1485.8325977364439 439.31595073532856 1484.62938917484 436.3524926113776Q1483.4261806132358 433.3890344874267 1483.4261806132358 429.6902822424955L1483.4261806132358 429.6902822424955Q1483.4261806132358 427.9300326801487 1485.2755567357012 424.0084640349204Q1487.124932858167 420.06461374966244 1488.885182420514 417.0120290655927L1488.885182420514 417.0120290655927Q1485.520654776028 415.40775098345387 1482.7131681322853 412.6002643397109Q1479.905681488542 409.7927776959679 1478.1454319261957 404.9799434495514Q1476.3629007238187 400.1671092031349 1476.3629007238187 392.7918863533021L1476.3629007238187 392.7918863533021Q1476.3629007238187 378.0414406536367 1484.7185157349586 371.69117324517043Q1493.0518491060689 365.36318747673386 1506.3762698438331 365.36318747673386L1506.3762698438331 365.36318747673386Q1510.6989080095964 365.36318747673386 1515.5117422560124 366.00935503759536Q1520.324576502429 366.65552259845686 1523.0652182260833 367.45766163952624L1523.0652182260833 367.45766163952624L1546.951136337928 366.8114940786648L1546.951136337928 377.3952730927752L1531.8887476778464 377.0833301323593Q1534.1169116808173 379.3114941353299 1535.654344842867 383.01024638026115Q1537.169496364887 386.70899862519235 1537.169496364887 392.7918863533021L1537.169496364887 392.7918863533021Q1537.169496364887 403.2196938872046 1533.6489972401932 409.16889177513616Q1530.1062164754703 415.095808023038 1523.2211897062907 417.50222514624625Q1516.313881297082 419.9086422694545 1505.8860737631794 419.9086422694545L1505.8860737631794 419.9086422694545Q1504.7719917616942 419.9086422694545 1502.1204765981593 419.66354422912775Q1499.4689614346244 419.418446188801 1498.1989079529308 419.262474708593L1498.1989079529308 419.262474708593Q1497.2185157916238 421.5129203515934 1496.2604052703464 424.40953355545514Q1495.302294749069 427.2838651192872 1495.302294749069 428.4202287608023L1495.302294749069 428.4202287608023Q1495.302294749069 431.4505318048423 1496.4163767505543 433.0548098869811Q1497.5527403920696 434.65908796912 1501.630280517506 435.1492840497735Q1505.7301022829715 435.63948013042705 1514.5536317347355 435.63948013042705L1514.5536317347355 435.63948013042705Q1526.0955212701228 435.63948013042705 1533.002829679332 437.55570117298174Q1539.9101380885409 439.4719222155365 1542.873596212492 444.52985450227976Q1545.8370543364426 449.5877867890231 1545.8370543364426 459.2134552818561L1545.8370543364426 459.2134552818561Q1545.8370543364426 472.8498189800363 1536.3673573238175 478.8658617880569Q1526.8976603111923 484.88190459607756 1509.8967689685269 484.88190459607756ZM1510.0527404487348 474.29812558196716L1510.0527404487348 474.29812558196716Q1521.928854584568 474.29812558196716 1527.543827872054 470.9335979374815Q1533.15880115954 467.5467886529662 1533.15880115954 459.8596228427176L1533.15880115954 459.8596228427176Q1533.15880115954 453.9104249547861 1531.309425037074 451.1029383110431Q1529.4823305546383 448.2954516673001 1525.137410748846 447.4264677061416Q1520.8147725830827 446.5352021049533 1513.5955212134581 446.5352021049533L1513.5955212134581 446.5352021049533Q1512.147214611527 446.5352021049533 1509.5848260081107 446.4683571848642Q1507.0224374046948 446.3792306247454 1504.2817956810409 446.2901040646266Q1501.5634355974166 446.22325914453745 1499.402116514535 446.0672876643295Q1497.2185157916238 445.8890345440918 1496.4163767505543 445.8890345440918L1496.4163767505543 445.8890345440918Q1491.4475710239299 449.43181530881515 1489.5313499813756 452.2393019525581Q1487.5928472987907 455.0467885963011 1487.5928472987907 459.7036513625097L1487.5928472987907 459.7036513625097Q1487.5928472987907 464.98440004955 1489.5313499813756 468.1929562138277Q1491.4475710239299 471.4015123781054 1496.3495318304654 472.8498189800363Q1501.2292109969712 474.29812558196716 1510.0527404487348 474.29812558196716ZM1506.3762698438331 409.9710308162056L1506.3762698438331 409.9710308162056Q1516.313881297082 409.9710308162056 1520.4805479826368 406.0271805309476Q1524.6694963082218 402.1056118857193 1524.6694963082218 392.7918863533021L1524.6694963082218 392.7918863533021Q1524.6694963082218 383.50044246091466 1520.4805479826368 379.4897472555676Q1516.313881297082 375.47905205022045 1506.3762698438331 375.47905205022045L1506.3762698438331 375.47905205022045Q1497.0625443114159 375.47905205022045 1492.9850041859795 379.4897472555676Q1488.885182420514 383.50044246091466 1488.885182420514 392.7918863533021L1488.885182420514 392.7918863533021Q1488.885182420514 402.1056118857193 1492.9850041859795 406.0271805309476Q1497.0625443114159 409.9710308162056 1506.3762698438331 409.9710308162056Z " fill="white" transform="matrix(0.5656287201665143,0,0,0.5656287201665144,0,68.15901587776511)"/></g></svg>